<?xml version="1.0" encoding="UTF-8"?>
<!DOCTYPE svg PUBLIC "-//W3C//DTD SVG 1.1//EN" "http://www.w3.org/Graphics/SVG/1.1/DTD/svg11.dtd">
<!-- Creator: CorelDRAW 2020 (64-Bit) -->
<svg xmlns="http://www.w3.org/2000/svg" xml:space="preserve" width="1.51543in" height="1.42511in" version="1.1" style="shape-rendering:geometricPrecision; text-rendering:geometricPrecision; image-rendering:optimizeQuality; fill-rule:evenodd; clip-rule:evenodd"
viewBox="0 0 1512.44 1422.29"
 xmlns:xlink="http://www.w3.org/1999/xlink"
 xmlns:xodm="http://www.corel.com/coreldraw/odm/2003">
 <defs>
  <style type="text/css">
   <![CDATA[
    .fil1 {fill:#5D509F}
    .fil0 {fill:white}
   ]]>
  </style>
 </defs>
 <g id="Layer_x0020_1">
  <metadata id="CorelCorpID_0Corel-Layer"/>
  <rect class="fil0" x="-0" y="-0" width="1512.44" height="1422.29" rx="156.2" ry="156.2"/>
  <g id="_2158861675360">
   <path class="fil1" d="M1057.39 515.78l-149.16 75.55c-25.65,12.72 -49.4,24.92 -75.05,37.64 -92.16,45.86 -65.56,44 -113.06,20.15l-189.06 -94.37c-12.35,-6.1 -68.4,-35.52 -76,-37.11 1.9,-1.85 -0.95,0 2.85,-2.39l297.37 -148.45c6.65,-0.8 239.41,118.49 264.12,130.69 8.55,4.24 29.45,16.17 38,18.29zm-730.59 0c0,28.63 21.85,35.52 39.91,44.27l165.31 82.97c38,18.82 74.11,36.85 111.16,55.4 18.05,9.01 36.1,18.29 55.1,27.3 9.5,4.77 18.05,9.01 27.55,14.05 38,18.82 36.1,12.46 87.4,-13.52 19,-9.28 36.1,-17.76 55.1,-27.3 38,-18.82 74.11,-36.84 111.16,-55.4l165.31 -82.71c16.15,-7.95 40.85,-16.17 40.85,-43.21 0,-27.83 -19,-34.99 -38,-44.53l-332.52 -166.21c-74.11,-37.11 -50.35,-33.93 -171.01,26.77 -38,18.82 -73.15,36.58 -111.16,55.4 -16.15,7.95 -182.41,89.07 -192.86,97.81 -6.65,5.83 -13.3,16.97 -13.3,28.9z"/>
   <path class="fil1" d="M326.79 904.66c0,12.46 5.7,23.06 12.35,29.95 11.4,10.07 316.37,159.85 358.17,180.79 74.11,37.11 50.35,33.93 171.96,-26.77l221.36 -110.8c11.4,-5.57 75.06,-35.79 81.7,-42.41 28.5,-26.51 6.65,-68.92 -24.7,-68.92 -18.05,0 -38.95,13.52 -51.3,19.88l-339.17 169.12c-4.75,0.53 -18.05,-7.42 -22.8,-10.07 -8.55,-4.24 -15.2,-7.69 -24.7,-12.19 -16.15,-8.48 -32.3,-16.17 -48.45,-24.39l-242.27 -121.14c-13.3,-6.89 -37.05,-21.21 -53.2,-21.21 -19.95,0 -38.95,18.29 -38.95,38.17z"/>
   <path class="fil1" d="M326.79 711.15c0,25.98 20.9,35.25 38.95,43.74 18.05,9.28 36.1,18.29 54.15,27.57 37.05,18.29 73.15,36.58 110.21,54.6 18.05,9.01 207.11,107.89 222.31,107.89 23.75,0 41.8,-13.25 64.6,-24.92l328.72 -164.35c16.15,-7.95 39.9,-17.76 39.9,-42.68 0,-13.78 -3.8,-21.74 -11.4,-28.9 -26.6,-26.77 -52.25,-5.3 -86.46,11.93 -37.05,18.56 -73.15,36.85 -110.21,55.4 -21.85,10.87 -216.61,109.48 -221.36,109.48 -4.75,0 -197.61,-97.81 -219.46,-108.95 -37.05,-18.55 -72.2,-36.31 -110.21,-54.87 -12.35,-6.1 -42.75,-24.12 -56.05,-25.45 -22.8,-2.65 -43.7,17.49 -43.7,39.5z"/>
  </g>
 </g>
</svg>
