<?xml version="1.0" encoding="UTF-8"?>
<!DOCTYPE svg PUBLIC "-//W3C//DTD SVG 1.1//EN" "http://www.w3.org/Graphics/SVG/1.1/DTD/svg11.dtd">
<!-- Creator: CorelDRAW 2020 (64-Bit) -->
<svg xmlns="http://www.w3.org/2000/svg" xml:space="preserve" width="0.860547in" height="0.858528in" version="1.1" style="shape-rendering:geometricPrecision; text-rendering:geometricPrecision; image-rendering:optimizeQuality; fill-rule:evenodd; clip-rule:evenodd"
viewBox="0 0 857.56 855.55"
 xmlns:xlink="http://www.w3.org/1999/xlink"
 xmlns:xodm="http://www.corel.com/coreldraw/odm/2003">
 <defs>
  <style type="text/css">
   <![CDATA[
    .fil0 {fill:#5D509F}
   ]]>
  </style>
 </defs>
 <g id="Layer_x0020_1">
  <metadata id="CorelCorpID_0Corel-Layer"/>
  <g id="_2158862044080">
   <path class="fil0" d="M729.5 232.7l-148.94 75.43c-25.61,12.7 -49.33,24.88 -74.94,37.59 -92.02,45.79 -65.46,43.94 -112.89,20.12l-188.78 -94.23c-12.33,-6.09 -68.3,-35.47 -75.89,-37.06 1.9,-1.85 -0.95,0 2.84,-2.38l296.92 -148.22c6.64,-0.8 239.05,118.31 263.72,130.49 8.54,4.23 29.41,16.14 37.95,18.26zm-729.5 0c0,28.59 21.82,35.47 39.85,44.2l165.06 82.85c37.95,18.79 73.99,36.79 110.99,55.32 18.02,9 36.05,18.26 55.02,27.26 9.49,4.77 18.02,9 27.51,14.03 37.94,18.79 36.05,12.44 87.27,-13.5 18.97,-9.26 36.05,-17.73 55.02,-27.26 37.95,-18.79 73.99,-36.79 110.99,-55.32l165.06 -82.58c16.13,-7.94 40.79,-16.14 40.79,-43.14 0,-27.79 -18.97,-34.94 -37.94,-44.47l-332.02 -165.96c-73.99,-37.06 -50.28,-33.88 -170.75,26.73 -37.95,18.79 -73.04,36.53 -110.99,55.32 -16.12,7.94 -182.14,88.93 -192.57,97.67 -6.64,5.82 -13.28,16.94 -13.28,28.85z"/>
   <path class="fil0" d="M-0 621c0,12.44 5.69,23.03 12.34,29.91 11.38,10.06 315.89,159.61 357.63,180.52 73.99,37.06 50.28,33.88 171.7,-26.73l221.03 -110.64c11.39,-5.56 74.94,-35.73 81.58,-42.35 28.46,-26.47 6.64,-68.82 -24.66,-68.82 -18.02,0 -38.9,13.5 -51.23,19.85l-338.66 168.87c-4.74,0.53 -18.02,-7.41 -22.77,-10.06 -8.54,-4.23 -15.18,-7.67 -24.67,-12.17 -16.12,-8.47 -32.25,-16.14 -48.38,-24.35l-241.9 -120.96c-13.28,-6.88 -37,-21.17 -53.12,-21.17 -19.92,0 -38.9,18.26 -38.9,38.12z"/>
   <path class="fil0" d="M-0 427.77c0,25.94 20.87,35.2 38.9,43.67 18.02,9.27 36.05,18.26 54.07,27.53 37,18.26 73.04,36.53 110.04,54.52 18.02,9 206.8,107.73 221.98,107.73 23.71,0 41.74,-13.23 64.5,-24.88l328.23 -164.11c16.13,-7.94 39.84,-17.73 39.84,-42.62 0,-13.76 -3.79,-21.7 -11.38,-28.85 -26.56,-26.73 -52.18,-5.29 -86.33,11.91 -37,18.53 -73.04,36.79 -110.04,55.32 -21.82,10.85 -216.29,109.32 -221.03,109.32 -4.74,0 -197.32,-97.67 -219.13,-108.79 -37,-18.53 -72.1,-36.26 -110.04,-54.79 -12.33,-6.09 -42.69,-24.09 -55.97,-25.41 -22.77,-2.65 -43.64,17.47 -43.64,39.44z"/>
  </g>
 </g>
</svg>
