<svg width="32" height="32" viewBox="0 0 32 32" fill="none" xmlns="http://www.w3.org/2000/svg">
<g clip-path="url(#clip0_15396_934)">
<path d="M27.6221 4.37828C27.3508 4.10698 26.9097 4.10698 26.6384 4.37828L16.8993 14.1174C16.628 14.3887 16.628 14.8298 16.8993 15.1011C17.0356 15.236 17.2137 15.3042 17.3918 15.3042C17.5699 15.3042 17.748 15.2361 17.883 15.1011L27.6221 5.36196C27.8934 5.09065 27.8934 4.64959 27.6221 4.37828Z" fill="#9EA0A5"/>
<path d="M27.1327 4.17389C26.7487 4.17389 26.437 4.48556 26.437 4.86956V13.2174C26.437 13.6014 26.7487 13.9131 27.1327 13.9131C27.5167 13.9131 27.8284 13.6014 27.8284 13.2174V4.86956C27.8284 4.48556 27.5167 4.17389 27.1327 4.17389Z" fill="#9EA0A5"/>
<path d="M27.1324 4.17389H18.7845C18.4005 4.17389 18.0889 4.48556 18.0889 4.86956C18.0889 5.25356 18.4005 5.56517 18.7845 5.56517H27.1324C27.5164 5.56517 27.828 5.2535 27.828 4.8695C27.828 4.4855 27.5164 4.17389 27.1324 4.17389Z" fill="#9EA0A5"/>
<path d="M15.1015 16.8999C14.8302 16.6286 14.3892 16.6286 14.1179 16.8999L4.37877 26.639C4.10747 26.9103 4.10747 27.3514 4.37877 27.6227C4.51514 27.7576 4.69318 27.8258 4.87129 27.8258C5.0494 27.8258 5.22744 27.7577 5.36244 27.6227L15.1015 17.8836C15.3729 17.6123 15.3729 17.1712 15.1015 16.8999Z" fill="#9EA0A5"/>
<path d="M4.87048 18.0869C4.48648 18.0869 4.1748 18.3985 4.1748 18.7825V27.1304C4.1748 27.5144 4.48648 27.826 4.87048 27.826C5.25448 27.826 5.56608 27.5144 5.56608 27.1304V18.7825C5.56608 18.3985 5.25448 18.0869 4.87048 18.0869Z" fill="#9EA0A5"/>
<path d="M13.2183 26.4346H4.87048C4.48648 26.4346 4.1748 26.7463 4.1748 27.1303C4.1748 27.5143 4.48648 27.826 4.87048 27.826H13.2183C13.6023 27.826 13.914 27.5143 13.914 27.1303C13.9139 26.7463 13.6023 26.4346 13.2183 26.4346Z" fill="#9EA0A5"/>
<path d="M29.913 0H2.08696C0.936325 0 0 0.936325 0 2.08696V29.913C0 31.0637 0.936325 32 2.08696 32H29.913C31.0637 32 32 31.0637 32 29.913V2.08696C32 0.936325 31.0636 0 29.913 0ZM30.6087 29.913C30.6087 30.2957 30.2956 30.6087 29.913 30.6087H2.08696C1.70432 30.6087 1.39128 30.2957 1.39128 29.913V2.08696C1.39128 1.70432 1.70432 1.39128 2.08696 1.39128H29.913C30.2957 1.39128 30.6087 1.70432 30.6087 2.08696V29.913H30.6087Z" fill="#9EA0A5"/>
</g>
<defs>
<clipPath id="clip0_15396_934">
<rect width="32" height="32" fill="white"/>
</clipPath>
</defs>
</svg>
